<svg width="54" height="54" viewBox="0 0 54 54" fill="none" xmlns="http://www.w3.org/2000/svg">
<path fill-rule="evenodd" clip-rule="evenodd" d="M52.0013 10.1125C52.7166 6.6255 49.2916 3.72775 45.9713 5.01063L5.27062 20.7359C1.56266 22.1685 1.39744 27.3536 5.00665 29.0193L13.8701 33.1102L18.0866 47.8677C18.3056 48.6343 18.9139 49.2279 19.6856 49.4279C20.4574 49.6277 21.2773 49.4045 21.841 48.8406L28.336 42.3456L37.4344 49.1694C40.0754 51.15 43.8793 49.7073 44.5426 46.4734L52.0013 10.1125ZM6.89242 24.9335L47.5931 9.20823L40.1344 45.5694L29.475 37.5747C28.5793 36.9028 27.3258 36.9919 26.534 37.7837L23.7521 40.5656L24.588 35.9686L40.966 19.5907C41.7631 18.7936 41.8473 17.5298 41.1631 16.634C40.4788 15.7382 39.2375 15.4869 38.2588 16.0462L15.6403 28.9709L6.89242 24.9335ZM18.3981 32.5779L19.7625 37.3533L20.2863 34.4721C20.3682 34.0219 20.5854 33.6072 20.909 33.2837L25.9038 28.2891L18.3981 32.5779Z" fill="#C0C0C0"/>
</svg>
