<svg width="48" height="48" viewBox="0 0 48 48" fill="none" xmlns="http://www.w3.org/2000/svg">
<path d="M4.64988 4.65L3.85057 3.85823L3.86004 3.84889L4.64988 4.65ZM4.64988 43.35L3.8581 44.1492L3.84877 44.1398L4.64988 43.35ZM43.3498 43.35L44.1492 44.1418L44.1398 44.1512L43.3498 43.35ZM43.3498 4.65L44.1416 3.85069L44.151 3.86016L43.3498 4.65ZM9.08987 15.195L7.9651 15.2181C7.95891 14.9158 8.07465 14.6237 8.28626 14.4077C8.49787 14.1917 8.78749 14.07 9.08987 14.07V15.195ZM26.0399 33.9151H27.1649C27.1649 34.5363 26.6611 35.0401 26.0399 35.0401V33.9151ZM26.0399 27.2249H24.9149C24.9149 26.9072 25.0492 26.6044 25.2848 26.3911C25.5203 26.1778 25.8351 26.074 26.1515 26.1055L26.0399 27.2249ZM33.7949 33.9151V35.0401C33.3058 35.0401 32.8729 34.7242 32.7237 34.2584L33.7949 33.9151ZM39.1198 33.9151L40.2059 33.6214C40.2972 33.9594 40.2261 34.3208 40.0133 34.5989C39.8002 34.8769 39.4701 35.0401 39.1198 35.0401V33.9151ZM31.4248 24.5249L30.9235 25.5322C30.557 25.3496 30.3182 24.9821 30.3009 24.5728C30.2834 24.1636 30.4899 23.7773 30.8398 23.5642L31.4248 24.5249ZM37.9948 15.18V14.055C38.3327 14.055 38.6527 14.2069 38.8664 14.4687C39.0802 14.7304 39.1648 15.0744 39.0971 15.4054L37.9948 15.18ZM33.1649 15.18L32.0822 14.8744C32.219 14.3897 32.6612 14.055 33.1649 14.055V15.18ZM26.0399 22.5899L26.1591 23.7086C25.8419 23.7426 25.5251 23.64 25.2877 23.4267C25.0503 23.2132 24.9149 22.9092 24.9149 22.5899H26.0399ZM26.0399 15.195V14.07C26.6611 14.07 27.1649 14.5737 27.1649 15.195H26.0399ZM21.1949 15.195H20.0699C20.0699 14.5737 20.5735 14.07 21.1949 14.07V15.195ZM21.1949 28.1551H22.3199C22.3199 28.5013 22.1602 28.8285 21.8873 29.0418C21.6141 29.2549 21.2582 29.3305 20.922 29.2463L21.1949 28.1551ZM14.2499 15.195V14.07C14.8628 14.07 15.3629 14.5606 15.3747 15.1734L14.2499 15.195ZM0.374878 23.1C0.374878 18.0391 0.372516 14.1327 0.778573 11.0989C1.18895 8.03269 2.03464 5.69146 3.85057 3.85823L5.44912 5.44171C4.11508 6.78847 3.38581 8.57981 3.00868 11.3974C2.62724 14.2473 2.62488 17.9759 2.62488 23.1H0.374878ZM0.374878 24.9V23.1H2.62488V24.9H0.374878ZM3.84877 44.1398C2.03459 42.2997 1.18897 39.9563 0.778573 36.8898C0.372516 33.8561 0.374878 29.9535 0.374878 24.9H2.62488C2.62488 30.0165 2.62724 33.7414 3.00868 36.5915C3.38576 39.4087 4.11517 41.2053 5.45099 42.5602L3.84877 44.1398ZM23.0998 47.625C18.039 47.625 14.1326 47.6275 11.0988 47.2214C8.03255 46.811 5.69134 45.9652 3.8581 44.1492L5.44159 42.5508C6.78835 43.8848 8.57968 44.614 11.3972 44.9911C14.2471 45.3725 17.9757 45.375 23.0998 45.375V47.625ZM24.8998 47.625H23.0998V45.375H24.8998V47.625ZM44.1398 44.1512C42.2997 45.9654 39.9561 46.811 36.8898 47.2214C33.8559 47.6275 29.9533 47.625 24.8998 47.625V45.375C30.0165 45.375 33.7414 45.3725 36.5912 44.9911C39.4087 44.614 41.2051 43.8846 42.56 42.5488L44.1398 44.1512ZM47.6248 24.9C47.6248 29.9609 47.6273 33.8674 47.2211 36.9011C46.8107 39.9674 45.9652 42.3085 44.1492 44.1418L42.5506 42.5582C43.8846 41.2116 44.6141 39.4202 44.9912 36.6027C45.3725 33.7526 45.3748 30.0241 45.3748 24.9H47.6248ZM47.6248 23.1V24.9H45.3748V23.1H47.6248ZM44.151 3.86016C45.9652 5.70026 46.8107 8.04377 47.2211 11.1101C47.6273 14.144 47.6248 18.0466 47.6248 23.1H45.3748C45.3748 17.9834 45.3725 14.2585 44.9912 11.4086C44.6141 8.59124 43.8846 6.79475 42.5488 5.43984L44.151 3.86016ZM24.8998 0.375C29.9607 0.375 33.8672 0.372638 36.9011 0.778695C39.9671 1.18907 42.3083 2.03474 44.1416 3.85069L42.5582 5.44925C41.2114 4.1152 39.4202 3.38593 36.6025 3.00881C33.7526 2.62736 30.0239 2.625 24.8998 2.625V0.375ZM23.0998 0.375H24.8998V2.625H23.0998V0.375ZM3.86004 3.84889C5.70013 2.03471 8.04364 1.18912 11.11 0.778695C14.1438 0.372638 18.0465 0.375 23.0998 0.375V2.625C17.9833 2.625 14.2584 2.62736 11.4085 3.00881C8.59111 3.38588 6.79462 4.11529 5.43972 5.45111L3.86004 3.84889ZM25.4398 35.0401C20.0348 35.0401 15.676 33.1796 12.6554 29.6772C9.65723 26.201 8.08858 21.2368 7.9651 15.2181L10.2146 15.1719C10.3312 20.8532 11.8075 25.249 14.3593 28.2077C16.8887 31.1404 20.585 32.7901 25.4398 32.7901V35.0401ZM25.4549 35.0401H25.4398V32.7901H25.4549V35.0401ZM26.0399 35.0401H25.4549V32.7901H26.0399V35.0401ZM27.1649 27.2249V33.9151H24.9149V27.2249H27.1649ZM32.7237 34.2584C31.6932 31.0452 29.1649 28.6667 25.9283 28.3445L26.1515 26.1055C30.4447 26.5333 33.6165 29.6747 34.8662 33.5715L32.7237 34.2584ZM39.1198 35.0401H33.7949V32.7901H39.1198V35.0401ZM37.1492 27.6819C38.5764 29.4234 39.6182 31.4477 40.2059 33.6214L38.0339 34.2087C37.5293 32.3421 36.6347 30.6035 35.4089 29.1082L37.1492 27.6819ZM31.9261 23.5178C33.9419 24.5211 35.7221 25.9404 37.1492 27.6819L35.4089 29.1082C34.1833 27.6126 32.6546 26.3938 30.9235 25.5322L31.9261 23.5178ZM36.6043 21.1843C35.3848 22.9189 33.8208 24.3832 32.01 25.4859L30.8398 23.5642C32.3864 22.6223 33.722 21.3715 34.7636 19.8904L36.6043 21.1843ZM39.0971 15.4054C38.6723 17.4826 37.8236 19.4499 36.6043 21.1843L34.7636 19.8904C35.8051 18.4089 36.5298 16.7287 36.8927 14.9546L39.0971 15.4054ZM33.1649 14.055H37.9948V16.305H33.1649V14.055ZM25.9206 21.4714C27.0377 21.3522 28.3259 20.6241 29.501 19.3871C30.6614 18.1656 31.6088 16.5511 32.0822 14.8744L34.2476 15.4856C33.6707 17.5289 32.5334 19.4619 31.1325 20.9366C29.7463 22.3958 27.9971 23.5126 26.1591 23.7086L25.9206 21.4714ZM27.1649 15.195V22.5899H24.9149V15.195H27.1649ZM21.1949 14.07H26.0399V16.32H21.1949V14.07ZM20.0699 28.1551V15.195H22.3199V28.1551H20.0699ZM15.3747 15.1734C15.5337 23.4433 19.1296 26.479 21.4676 27.0636L20.922 29.2463C17.2602 28.331 13.296 24.1066 13.1251 15.2166L15.3747 15.1734ZM9.08987 14.07H14.2499V16.32H9.08987V14.07Z" fill="#C0C0C0"/>
</svg>
