<svg width="82" height="73" viewBox="0 0 82 73" fill="none" xmlns="http://www.w3.org/2000/svg">
<g clip-path="url(#clip0_4_78)">
<path fill-rule="evenodd" clip-rule="evenodd" d="M41 71.6482C45.2883 71.6482 49.4855 71.0398 53.4731 69.8583L52.5134 67.2925C48.8325 68.3821 44.9603 68.9445 40.9969 68.9445V71.6482M59.4014 67.6061C63.1491 65.846 66.5536 63.556 69.4874 60.8361L67.2977 58.9651C64.5886 61.4769 61.4423 63.5911 57.9831 65.2161L59.4014 67.6061ZM73.554 56.3939C75.9532 53.2873 77.7785 49.8563 78.9508 46.2226L76.0322 45.4763C74.951 48.8289 73.2655 51.995 71.0515 54.8609L73.554 56.3939ZM80.1869 40.8179C80.3782 39.4173 80.4784 38.0033 80.4815 36.5784C80.4815 34.1559 80.2233 31.8253 79.707 29.5407L76.7307 30.0733C77.2075 32.1822 77.4475 34.3344 77.4475 36.5757C77.4444 37.8897 77.3533 39.1983 77.1741 40.4907L80.1899 40.8206M77.9486 24.0873C76.4513 20.5536 74.3193 17.2659 71.6467 14.3405L69.29 16.0465C71.7561 18.7475 73.7241 21.7838 75.1089 25.0417L77.9486 24.0873ZM67.2005 10.2092C64.0329 7.7056 60.4309 5.667 56.5344 4.18267L55.3378 6.66737C58.9337 8.03815 62.2592 9.91993 65.1839 12.2316L67.2005 10.2092ZM50.6092 2.40634C47.5357 1.7223 44.3589 1.36811 41.1366 1.3573C39.9886 1.3573 38.9591 1.39245 37.9204 1.46274L38.1543 4.15834C39.114 4.09345 40.0646 4.061 41.1306 4.061C44.1038 4.06911 47.0346 4.39626 49.8742 5.02893L50.6122 2.40634M31.6672 2.34686C27.5338 3.23908 23.6099 4.72071 20.0292 6.72415L21.6449 9.01419C24.9523 7.16486 28.5724 5.79949 32.3839 4.97486L31.6672 2.34686ZM14.9118 10.1281C11.7321 12.6209 9.01998 15.5626 6.88494 18.8124L9.50894 20.1751C11.48 17.1686 13.9855 14.4594 16.9223 12.1559L14.9118 10.1281ZM4.16376 23.8521C2.64828 27.348 1.76754 31.0548 1.57013 34.8616L4.60413 34.986C4.78635 31.4711 5.60028 28.0537 6.99731 24.8254L4.16376 23.8521ZM1.79487 40.6205C2.28991 44.3949 3.4622 48.0394 5.25709 51.4353L8.00561 50.2862C6.35043 47.1499 5.2662 43.7865 4.81065 40.3041L1.79487 40.6178M8.4065 56.3371C10.7997 59.4491 13.7395 62.2014 17.1106 64.4753L18.9511 62.3231C15.8381 60.2142 13.123 57.67 10.9151 54.7987L8.40954 56.3263M22.5773 67.5845C26.3129 69.3419 30.3491 70.5586 34.5523 71.175L35.0443 68.5065C31.163 67.9387 27.4426 66.8167 23.9956 65.1944L22.5773 67.5845ZM40.8572 71.6428C40.9301 71.6428 40.9301 71.6428 41.003 71.6428V68.9391C40.9362 68.9391 40.9362 68.9391 40.8694 68.9391L40.8572 71.6428Z" fill="#3FBD5C"/>
<path fill-rule="evenodd" clip-rule="evenodd" d="M77.0676 1.36499L41.2026 43.6926L21.9324 20.9475L19 24.4087L41.2026 50.6151L79.9958 4.82133L77.0676 1.36499Z" fill="#3FBD5C"/>
</g>
<defs>
<clipPath id="clip0_4_78">
<rect width="82" height="73" fill="white"/>
</clipPath>
</defs>
</svg>
