<svg width="72" height="56" viewBox="0 0 72 56" fill="none" xmlns="http://www.w3.org/2000/svg">
<path d="M66 0.25H6C2.7 0.25 0 2.33125 0 4.875V18.75C0 21.2938 2.7 23.375 6 23.375H12C12.261 23.375 12.513 23.3403 12.768 23.3149C14.919 29.8384 21.552 34.9629 30 36.6441V41.875H12V55.75H60V41.875H42V36.6441C50.451 34.9653 57.081 29.8384 59.232 23.3149C59.487 23.3403 59.739 23.375 60 23.375H66C69.3 23.375 72 21.2938 72 18.75V4.875C72 2.33125 69.3 0.25 66 0.25ZM12 18.75H6V4.875H12V18.75ZM54 46.5V51.125H18V46.5H54ZM54 18.75C54 26.3997 45.924 32.625 36 32.625C26.076 32.625 18 26.3997 18 18.75V4.875H54V18.75ZM66 18.75H60V4.875H66V18.75ZM39 23.375H33V9.5H39V23.375Z" fill="#FFD700"/>
</svg>
