<svg width="406" height="387" viewBox="0 0 406 387" fill="none" xmlns="http://www.w3.org/2000/svg">
<path d="M203.026 11.7996C128.703 11.7996 68.2378 69.4362 68.2378 140.281C68.2378 187.494 94.8892 230.263 138.096 252.897V285.757H138.067V312.013H138.028V351.839H176.977C177.785 364.85 189.14 375.2 202.987 375.2C216.834 375.2 228.19 364.85 228.996 351.839H267.921V325.583H267.96V285.757H267.956V252.897C311.163 230.263 337.814 187.494 337.814 140.281C337.814 69.4362 277.349 11.7996 203.026 11.7996ZM152.303 299.327H253.724V312.013H152.303V299.327ZM202.987 361.63C196.347 361.63 192.019 356.791 191.286 351.839H214.696C213.932 357.356 208.978 361.63 202.987 361.63ZM253.684 338.269H152.264V325.583H253.684V338.269ZM257.611 242.763L253.72 244.651V285.384H210.119V185.115L252.343 144.865C255.122 142.215 255.122 137.92 252.342 135.269C249.563 132.621 245.056 132.62 242.275 135.27L203 172.709L163.725 135.27C160.946 132.621 156.438 132.62 153.659 135.27C150.878 137.92 150.878 142.216 153.658 144.865L195.882 185.115V285.384H152.332V244.651L148.441 242.763C107.751 223.031 82.4742 183.762 82.4742 140.281C82.4742 76.9188 136.554 25.3702 203.026 25.3702C269.499 25.3702 323.578 76.9188 323.578 140.281C323.578 183.762 298.301 223.031 257.611 242.763Z" fill="#8585D3"/>
<path d="M240.593 52.9384C236.661 52.9384 233.475 55.9759 233.475 59.7235C233.475 63.4712 236.661 66.5085 240.593 66.5085C251.789 66.5085 278.033 79.3298 278.033 104.193C278.033 107.941 281.219 110.979 285.151 110.979C289.082 110.979 292.269 107.941 292.269 104.193C292.269 70.5417 258.627 52.9384 240.593 52.9384Z" fill="#8585D3"/>
<path d="M47.2158 153.269C47.2158 149.522 44.0291 146.484 40.0977 146.484H7.82365C3.89222 146.484 0.705566 149.522 0.705566 153.269C0.705566 157.017 3.89222 160.054 7.82365 160.054H40.0977C44.0291 160.054 47.2158 157.017 47.2158 153.269Z" fill="#8585D3"/>
<path d="M49.6574 64.5206C51.0478 65.8457 52.8691 66.5083 54.6912 66.5083C56.5125 66.5083 58.3346 65.8457 59.724 64.5215C62.5046 61.871 62.5046 57.5755 59.7249 54.9263L36.9059 33.1738C34.1275 30.5253 29.6198 30.5244 26.8393 33.173C24.0589 35.8233 24.0589 40.119 26.8384 42.7684L49.6574 64.5206Z" fill="#8585D3"/>
<path d="M49.6606 242.017L26.8393 263.77C24.0589 266.42 24.0589 270.716 26.8384 273.366C28.2288 274.691 30.0499 275.354 31.8722 275.354C33.6933 275.354 35.5156 274.691 36.9048 273.366L59.7262 251.614C62.5067 248.964 62.5067 244.668 59.7271 242.019C56.9478 239.369 52.4401 239.369 49.6606 242.017Z" fill="#8585D3"/>
<path d="M398.177 146.484H365.903C361.972 146.484 358.785 149.522 358.785 153.269C358.785 157.017 361.972 160.054 365.903 160.054H398.177C402.108 160.054 405.295 157.017 405.295 153.269C405.295 149.522 402.108 146.484 398.177 146.484Z" fill="#8585D3"/>
<path d="M351.308 66.5083C353.129 66.5083 354.951 65.8457 356.341 64.5215L379.161 42.7693C381.941 40.119 381.941 35.8233 379.161 33.173C376.381 30.5244 371.874 30.5244 369.094 33.173L346.274 54.9252C343.494 57.5757 343.494 61.8712 346.274 64.5215C347.664 65.8457 349.486 66.5083 351.308 66.5083Z" fill="#8585D3"/>
<path d="M356.34 242.017C353.561 239.369 349.054 239.369 346.273 242.019C343.493 244.668 343.493 248.964 346.274 251.614L369.095 273.366C370.485 274.691 372.307 275.354 374.128 275.354C375.949 275.354 377.772 274.691 379.162 273.366C381.941 270.716 381.941 266.42 379.161 263.77L356.34 242.017Z" fill="#8585D3"/>
</svg>
